<svg xmlns="http://www.w3.org/2000/svg" viewBox="0 0 310.9 159.64"><defs><style>.cls-1{fill:#d85e39;}.cls-2{fill:#37363a;}</style></defs><title>lo_3</title><g id="Layer_2" data-name="Layer 2"><g id="Layer_1-2" data-name="Layer 1"><path class="cls-1" d="M67.57,78.66c1-.63,10.16-5.59,12.45-6.41a54,54,0,0,0,7.16.79h0s-2.36-5.87-5-6.73-7.64-.67-7.64-.67V63.45s9.35-5.53,14-4.1a22.87,22.87,0,0,1,0,3.52s1.66,1.71-2.06,4.29a41.78,41.78,0,0,0,2.38,7.18,82.59,82.59,0,0,1,5.79,9.16s.31,5.86-.26,5.86c.06-1.84-3.49-10-5.21-12.23s-6-2.29-9.53-1.59-11.3,4.13-11.3,4.13S67.38,79.49,67.57,78.66Zm10.73.76c-1.24,1.94-3.14,5.75-3.14,5.75s6-2.86,12.19-1c.36.11,2.57-3.87,1.43-4.7S79.54,77.49,78.31,79.43ZM97,44.56a13.69,13.69,0,0,0-10-2.87,20.13,20.13,0,0,0-.38-4.75c-.5-.17-.2,2.66-1.47,5.13-.28.08-.43.15-.43.15s-1.52-.32-4.89-.86a11.34,11.34,0,0,0-.93-.68c.1-2.3.41-5.83.23-5.89-.59-.2-1.19,2.88-2,4.9C70.22,36.44,59.9,38.26,56.4,40c-4,2-17,8.41-17,8.41L47,35.83s-4.67-.92-3.78-6.76l.89-5.84,11.56-5.46s19.67-.42,30.62,4.54c.38.21.77.39,1.16.57l.29.15,0,0c1.6.72,3.28,1.6,4.61,5.11,0,0,5.82-9.52,4-14.22-2.23,3.9-3.8,6.46-7.23,7.71A14.51,14.51,0,0,0,92,7s-2.14,8.88-7.73,11.61c-2,1,2.55-13.92,4.36-16.05-3.08,1.68-5.73,5.12-8.81,8.74a25.86,25.86,0,0,0,.83-11c-1.14,3.65-4.76,10.22-6.38,9.53.48-1-1-7.3-2.35-9.82a13.65,13.65,0,0,1-8.69,8.15A18.13,18.13,0,0,0,57.5,1,14.79,14.79,0,0,1,54.36,9.5s-5.84-7.37-5.72-6.6.25,10.54.25,10.54a25.9,25.9,0,0,0-6.49-7.23,17.68,17.68,0,0,1,.15,8.51c-2.49-1.24-6.62-2.44-12.26-.13,1,.41,3.9.77,6.52,2.27-4.42.3-10.69,1.28-13.87,4.3,4.37.39,4.88,1.62,4.88,1.62S17,34.78,16.64,43.67c1.51-2.52,3.66-7.86,10-10.62-1.2.89-9.11,12.56-9.45,18.44C20,45.8,24.63,42.22,27.83,39.86c0,0-7.93,10.75-7.76,16.23,4.45-6.83,7.38-8.64,7.38-8.64l-1,7.4,2.45.89,11,6.86-.48-7.34a87.34,87.34,0,0,1,11.91-.19C56,56.4,68.59,59.83,71.64,59.12s7.14-6.53,9.26-10.24c3.23-1.14,4,3.81,4.52,5.27s2.22,2.22,4.06,3.94,1.21,5.27,1.21,5.27a18.27,18.27,0,0,0,4.81,1.76c-1.24-2.29-1.38-2.91,2.43-4.62S103.33,49.32,97,44.56ZM24,63.48s.48-3.17,1.52-2.69,2.7,1,2.29,3.38c-.18,1.06-2,.79-2.93,1S24.51,68.5,26,69.58s.84-1.4,3.32-1.46.45,2.29.45,2.29c2.86,1.71,5.43-.19,4.76-.86a50.24,50.24,0,0,1-3-4.43L33.44,62l-2.76,2s-2.86-6.1-5.72-6.76S20.67,64.12,21.15,66C22.29,65.84,24,63.48,24,63.48ZM27.44,74a1.61,1.61,0,0,0,1.43-1.27l-.29-1-1.08.57a5.85,5.85,0,0,1-3.81-4.19h-.64C23,70.85,26.17,74.22,27.44,74Zm.39,2c-.49,2.1,4.11,4.38,6.77,3S36.2,74,36.2,74,33.74,80.22,27.83,76ZM17.76,125.14,14.2,113.55l-9.61.81A108.78,108.78,0,0,0,17.76,125.14ZM0,109.34c5.59,0,16.77-.83,16.77-.83l1.91-2.29,10.53,6-5-13.28s13,6.56,15.29,9.61C36.58,103,34.87,97.59,23.82,97l.29-1s7.08-1.42,9.46.48S47.15,118.8,48.3,120.23s1-3,1-3c-4.55-5.84-9.59-19.82-16.47-22.47C35,92.4,50,110.54,61.09,112.61c-.74-1-1.65-2.27-2.67-3.69-9-5.68-24.91-20.67-26.32-24.6a137.79,137.79,0,0,0,21.6,17.93l-2.22-3.18C44.32,93,34.64,82.28,35.15,80.89,36.69,83.14,41.7,87.57,46,91.17c-3.42-4.94-6-8.67-6-8.67H52.59c.29,0,.29,4.57,2.57,5.62s4-4.29,7-3,7,7.53,17.62,4.48,8.57,6,8.57,6-9.19,4.65-9.53,4.86c-3.59,2.22-4.22,4.38-4.22,4.38a47.82,47.82,0,0,0-.38,8,13.19,13.19,0,0,0-1.29,2.47l3.43.89,30.88,18.24L95.64,151.25l5.62,8.38c-25-2.95-58.43-17.38-81.13-32.85l-4.95-13.32-1,.08,0-.1.92-.75-12.22-.09C1.82,111.51.86,110.41,0,109.34Zm78.75,41.53.89-27.56s-7.11-1.65-10.8-3.81l8.6,9.25s.16,1.68-1.87,4.73c-2.79-.63-10-13.14-10-13.14S68.3,132.9,78.75,150.87Z"/><path class="cls-2" d="M145.55,73.45h9.88l20.88,49.06H165.1l-4.45-10.93h-20.6l-4.45,10.93H124.67Zm11.27,28.67-6.47-15.8-6.47,15.8Z"/><path class="cls-2" d="M187.31,73.8h22.27c6.19,0,11,1.74,14.2,4.94C226.49,81.46,228,85.28,228,90c0,7.86-4.25,12.81-10.44,15.1l11.9,17.4H216.89l-10.58-15.59H198v15.59H187.31Zm21.58,23.66c5.22,0,8.21-2.78,8.21-7,0-4.59-3.2-7-8.42-7H198v14Z"/><path class="cls-2" d="M241.1,73.8H251l22.83,30v-30h10.58v48.72h-9.12l-23.59-31v31H241.1Z"/><path class="cls-2" d="M300.05,73.8h10.72v48.72H300.05Z"/><path class="cls-2" d="M124.14,149.48a5.7,5.7,0,0,1,10-3.77l-1,1.1a4.47,4.47,0,0,0-3.36-1.61,4.28,4.28,0,0,0,.11,8.53,4.45,4.45,0,0,0,3.3-1.65l1.08,1a5.66,5.66,0,0,1-10.07-3.6Z"/><path class="cls-2" d="M136.91,144h9.48v10.94h-1.63v-9.5h-6.22v9.5h-1.63Z"/><path class="cls-2" d="M149.35,149.48A5.7,5.7,0,1,1,155,155.2,5.66,5.66,0,0,1,149.35,149.48Zm9.74,0a4.14,4.14,0,0,0-4.06-4.28,4.05,4.05,0,0,0-4,4.28,4.11,4.11,0,0,0,4,4.25A4,4,0,0,0,159.09,149.48Z"/><path class="cls-2" d="M163.7,144h1.63v2.2a4.92,4.92,0,0,1,4.19-2.43,5.73,5.73,0,0,1,0,11.41,4.93,4.93,0,0,1-4.19-2.33v5.48H163.7Zm9.38,5.46a3.94,3.94,0,0,0-3.85-4.23,4.25,4.25,0,0,0,0,8.49C171.34,153.72,173.08,152.15,173.08,149.46Z"/><path class="cls-2" d="M180,145.44h-3.92V144h9.48v1.44h-3.91v9.5H180Z"/><path class="cls-2" d="M187.92,144h1.63v8.66L196,144h1.59v10.94H196v-8.66l-6.52,8.66h-1.57Z"/><path class="cls-2" d="M201.28,144h5.29c2.18,0,3.58,1.08,3.58,2.73a2.61,2.61,0,0,1-1.82,2.52,2.81,2.81,0,0,1,2.41,2.71c0,1.84-1.57,3-4,3h-5.48Zm5,4.7c1.31,0,2.22-.61,2.22-1.76,0-.91-.76-1.54-2.18-1.54h-3.41v3.3Zm.28,4.85c1.57,0,2.52-.7,2.52-1.84s-1-1.69-2.73-1.69h-3.43v3.54Z"/><path class="cls-2" d="M213.68,144h1.63v4.72h6.31V144h1.63v10.94h-1.63v-4.78h-6.31v4.78h-1.63Z"/><path class="cls-2" d="M226.89,144h1.63v4.11h2.92c2.37,0,4.32,1,4.32,3.28s-1.63,3.56-4.13,3.56h-4.74Zm4.59,9.5c1.63,0,2.62-.7,2.62-2.07s-1-1.93-2.69-1.93h-2.9v4Zm6.24-9.5h1.63v10.94h-1.63Z"/><path class="cls-2" d="M243,144h1.63v8.66l6.5-8.66h1.59v10.94h-1.63v-8.66l-6.52,8.66H243Zm1.82-4.15,1.12-.23a1.91,1.91,0,0,0,3.72,0l1.12.23a3,3,0,0,1-6,0Z"/><path class="cls-2" d="M262.7,144h1.63v6.31l6-6.31h2l-4.57,4.74,4.7,6.2h-1.93l-3.89-5-2.31,2.37v2.65H262.7Z"/><path class="cls-2" d="M272.86,154.94l.19-1.4a3.63,3.63,0,0,0,.78.15c1.31,0,2.41-.57,2.41-8.78V144H284v10.94h-1.63v-9.5h-4.57v.25c0,8.53-1.54,9.42-3.62,9.42A6.73,6.73,0,0,1,272.86,154.94Z"/><path class="cls-2" d="M287,157.84l.55-1.29a3.42,3.42,0,0,0,1.71.4c1,0,1.59-.51,2.24-2.05l-5-10.9h1.8l4,9.12,3.51-9.12h1.74L293,155.3c-.93,2.26-2,3.09-3.64,3.09A5,5,0,0,1,287,157.84Z"/><path class="cls-2" d="M299.74,149c0-3.54.28-6.92,4.08-7.83l6.09-1.44.32,1.38-5.93,1.46c-2.26.57-3,1.8-3.2,3.89a5,5,0,0,1,4.53-2.37,5.37,5.37,0,0,1,5.25,5.44,5.57,5.57,0,0,1-5.61,5.63C302,155.2,299.74,152.85,299.74,149Zm9.46.57a4,4,0,0,0-3.92-4.13,3.92,3.92,0,0,0-3.87,4.13,4,4,0,0,0,3.92,4.13A3.92,3.92,0,0,0,309.2,149.61Z"/></g></g></svg>