<svg xmlns="http://www.w3.org/2000/svg" viewBox="0 0 129.64 191.93"><defs><style>.cls-1{fill:#94c618;}.cls-2{fill:#2a2d25;}</style></defs><title>lo_2</title><g id="Layer_2" data-name="Layer 2"><g id="Layer_1-2" data-name="Layer 1"><path class="cls-1" d="M74.5,40.91S87.62,6.8,67.94.57c0,0-32.8-8.53-15.41,40.34,0,0-21.65,5.25-21,13.77,0,0-17.38-4.59-20,17.38,0,0-9.51-1.31-9.84,33.78,0,0-3.94,16.4,5.25,38,0,0-.66,2.3,1.64,5.25,0,0-3,16.73,7.54,18l2.29-.33a4.05,4.05,0,0,0,3.12.66,18.22,18.22,0,0,0,2.13-.82s5.58.66,5.08-4.43c0,0-1.31-16.07-8.36-17.05,0,0-4.59-7.38-1.64-13.77,0,0,6.72-13.94-.33-23.94,0,0,9.18-5.25,11-14.43,0,0,1.48,9.68,8.36,14.43l1.31,17.71s11.26,5.68,14.43,13.12c0,0,11.15,10.33,22.22-.25,0,0,5.33-11.89,13.86-13.2l1-15.42s7.46-7.13,8.77-16.73c0,0,4.35,11.15,11.23,14.76,0,0-7.22,17.71-.66,24.93,0,0,2.62,12.79-3.61,14.76,0,0-9.84,14.76-4.26,18.69,0,0,.33,2.62,4.92,1a3.54,3.54,0,0,0,3.94,0s6.56,3.61,9.18-7.54l-.33-9.18,2.3-4.92s10.82-32.14,3.94-40.67c0,0,3-32.14-8.2-32.47,0,0-2.3-23.61-20.66-17.71C97.13,54.36,95.82,45.5,74.5,40.91Z"/><path class="cls-2" d="M49.41,163.67h-1v3.66H46.93v-8.53H48.4v3.59h.81l2.51-3.59h1.82l-2.93,4.08,3.19,4.45H52Z"/><path class="cls-2" d="M62.23,158.79v8.53H60.75V160H58.14l-.15,3.3a9.45,9.45,0,0,1-.38,2.4,2.43,2.43,0,0,1-.84,1.25,2.5,2.5,0,0,1-1.48.39h-.37v-1.2l.23,0a1.16,1.16,0,0,0,.79-.36,2.1,2.1,0,0,0,.42-.94,11.37,11.37,0,0,0,.2-1.85l.16-4.17Z"/><path class="cls-2" d="M68,163.25l1.71-4.46h1.65l-3,7.08-.27.53a2,2,0,0,1-1.9,1l-.61,0v-1.18a3.54,3.54,0,0,0,.5,0,.91.91,0,0,0,.89-.53l.3-.71-2.92-6.21H66Z"/><path class="cls-2" d="M78.76,160H74.83v2.07h1.75a3.86,3.86,0,0,1,1.63.32,2.37,2.37,0,0,1,1.06.91,2.57,2.57,0,0,1,.36,1.37,2.45,2.45,0,0,1-.81,1.92,3.24,3.24,0,0,1-2.21.74H73.34v-8.53h5.41Zm-3.93,3.26v2.88h1.74a1.61,1.61,0,0,0,1.17-.4,1.43,1.43,0,0,0,.42-1.08,1.3,1.3,0,0,0-.41-1,1.67,1.67,0,0,0-1.14-.38Z"/><path class="cls-2" d="M10.47,188.9H5.11l-.94,3H0L5.95,175.7H9.63l6,16.22h-4.2Zm-4.42-3H9.54l-1.75-5.63Z"/><path class="cls-2" d="M29.91,178.72H25v13.2H21.13v-13.2H16.35v-3H29.91Z"/><path class="cls-2" d="M46.33,175.7v16.22H42.42v-13.2H38.78l-.27,5.45a16.34,16.34,0,0,1-.78,4.5A4.88,4.88,0,0,1,36,191.13a5.49,5.49,0,0,1-3.08.8h-1v-3l.55-.06a2.11,2.11,0,0,0,1.69-1.43,14.19,14.19,0,0,0,.68-4.26l.28-7.46Z"/><path class="cls-2" d="M60.54,185H54.39v3.88h7.26v3H50.48V175.7h11.2v3H54.39v3.42h6.15Z"/><path class="cls-2" d="M77.92,178.72H73.05v13.2H69.14v-13.2H64.36v-3H77.92Z"/><path class="cls-2" d="M90.8,175.7h3.91v16.22H90.8V181.7L85,191.93H81.06V175.7H85v10.24Z"/><path class="cls-2" d="M104.54,185.51h-1.85v6.42H98.78V175.7h3.91V182h1.5l3.12-6.27h4.74l-4.46,7.49,5,8.74H108Z"/><path class="cls-2" d="M124.5,188.9h-5.36l-.94,3H114l6-16.22h3.68l6,16.22h-4.2Zm-4.42-3h3.49l-1.75-5.63Z"/></g></g></svg>