<svg xmlns="http://www.w3.org/2000/svg" viewBox="0 0 99.67 45.16"><defs><style>.cls-1,.cls-3{fill:#e53e72;}.cls-1{fill-rule:evenodd;}.cls-2{fill:#403833;}</style></defs><title>lo_6</title><g id="Layer_2" data-name="Layer 2"><g id="Layer_1-2" data-name="Layer 1"><path class="cls-1" d="M23.6,4.42A6.94,6.94,0,0,1,23.88,3c1.55-4.56,9.27-3.69,9.3,1.55-1.7-.45-3.53-.91-4.38.18-.48.62-.23,1.52-.46,2.64-.15.76-.5,1.26-.55,1.64A24,24,0,0,0,28,12.44c.15,2.52.21,4.66.37,7.11A12.84,12.84,0,0,1,28.44,23c-.55,1.93-2.33,1.54-4.56,1.64-7.4.35-15.09-.11-22.25.18C1,25.39.68,26.21.07,26.76c-.74-7.48,4.3-13.67,11.31-14.14A12.31,12.31,0,0,1,23,19c.16.3.26.88.73,1C23.84,15.79,23.22,8.8,23.6,4.42Zm4.65-2.1a.84.84,0,0,0-.91.18c-.9,1.07,1.53,2.42,1.55.64A.73.73,0,0,0,28.25,2.32Z"/><path class="cls-1" d="M29.44,5.15c-.27,1.31-.21,3-.82,3.92a14.14,14.14,0,0,0,3,1.91c2.18,1,5.25.79,4.83,4.29,2.68-1.12,2.63-6.49.64-8.21-1-.88-4.35-1.87-5.93-2.1C30.54,4.87,29.95,4.73,29.44,5.15Z"/><path class="cls-1" d="M13.48,29.86c2.08.35,4.33-.46,6.39,0,.92.21,2.49,1.72,2.37,2.73a1.2,1.2,0,0,1-1.19,1c-1,0-1.24-1.14-2.19-1.37-1.82-.44-3.37.32-5.38,0V41.9c0,.92.13,2.6-.27,3a2,2,0,0,1-1.73.09c-.54-.36-.46-1.81-.46-2.83,0-3.5.07-6.93-.09-9.94-1.62-.46-6.09.8-6.84-.46s1.18-2.56,2.1-3.37S8.37,26,9.37,25.76c1.29-.29,3,.23,4,0A35.64,35.64,0,0,1,13.48,29.86ZM11,27.4a21.59,21.59,0,0,0-2.64,2.46H11Z"/><path class="cls-2" d="M35,28.52c.3,0,.42.11.42.41v.61h.62c2.1,0,3.24,1.13,3.24,3v.92c0,1.92-1.14,3-3.24,3h-.62v.61c0,.3-.12.41-.42.41h-.68c-.3,0-.41-.11-.41-.41v-.61h-.62c-2.1,0-3.24-1.13-3.24-3v-.92c0-1.92,1.14-3,3.24-3H34v-.61c0-.3.11-.41.41-.41ZM33.33,30.9c-1.15,0-1.73.54-1.73,1.63v1c0,1.09.58,1.63,1.73,1.63H34V30.9Zm4.49,1.63c0-1.09-.58-1.63-1.73-1.63h-.62V35.2h.62c1.15,0,1.73-.54,1.73-1.63Z"/><path class="cls-2" d="M47.19,28.82c.3,0,.41.11.41.41v7.7c0,.3-.11.41-.41.41h-.7c-.3,0-.41-.11-.41-.41v-6.7H43.55v1.56a12.38,12.38,0,0,1-.46,3.67,3.48,3.48,0,0,1-.52,1,3.12,3.12,0,0,1-1.3,1c-.28.13-.43.08-.54-.19l-.31-.6a.36.36,0,0,1,.19-.55,1.61,1.61,0,0,0,.78-.65,2.25,2.25,0,0,0,.36-.72,11.4,11.4,0,0,0,.31-3V29.23c0-.3.12-.41.42-.41Z"/><path class="cls-2" d="M56.76,36.94c.1.26,0,.4-.28.4h-.62c-.49,0-.65-.07-.74-.36l-.55-1.55H51.25L50.69,37c-.1.29-.25.36-.74.36h-.55c-.28,0-.37-.13-.28-.4l3-7.8a.43.43,0,0,1,.5-.34h.64c.29,0,.41.07.5.32Zm-3.53-5.28A7.67,7.67,0,0,1,53,30.41v-.2h-.08a4.38,4.38,0,0,1-.26,1.45l-.92,2.54h2.47Z"/><path class="cls-2" d="M65.83,28.82c.3,0,.41.11.41.41v7.7c0,.3-.11.41-.41.41h-.61c-.3,0-.41-.11-.41-.41V33.27a11.18,11.18,0,0,1,.29-2.39H65a13.18,13.18,0,0,1-1,2.19l-1.18,2.08a.54.54,0,0,1-.47.29H62a.43.43,0,0,1-.47-.29l-1.2-2.09a9.88,9.88,0,0,1-.92-2.18h-.08a11.91,11.91,0,0,1,.25,2.4v3.65c0,.3-.11.41-.41.41H58.6c-.3,0-.42-.11-.42-.41v-7.7c0-.3.12-.41.42-.41h.53c.34,0,.44.06.58.31l2.5,4.46,2.5-4.45c.14-.28.23-.32.55-.32Z"/><path class="cls-2" d="M74.83,28.82c.3,0,.41.11.41.41v7.7c0,.3-.11.41-.41.41h-.68c-.3,0-.41-.11-.41-.41V33.42A13.59,13.59,0,0,1,73.8,32c0-.32.11-.77.23-1.34h0a13.58,13.58,0,0,1-1.2,2.28L70,37.13a.45.45,0,0,1-.41.2h-.7c-.3,0-.42-.11-.42-.41v-7.7c0-.3.12-.41.42-.41h.68c.3,0,.41.11.41.41v3.48a14.05,14.05,0,0,1,0,1.42c0,.34-.12.79-.24,1.37h0A13.37,13.37,0,0,1,71,33.12l2.7-4.1a.43.43,0,0,1,.4-.19Z"/><path class="cls-2" d="M83.66,28.82c.3,0,.42.11.42.41v7.7c0,.3-.12.41-.42.41H83c-.3,0-.41-.11-.41-.41v-3.2H79v3.2c0,.3-.11.41-.41.41h-.68c-.3,0-.42-.11-.42-.41v-7.7c0-.3.12-.41.42-.41h.68c.3,0,.41.11.41.41v3.09h3.55V29.23c0-.3.11-.41.41-.41Z"/><path class="cls-2" d="M91.16,28.82c.3,0,.41.11.41.41v.59c0,.3-.11.41-.41.41H87.85v6.7c0,.3-.11.41-.41.41h-.68c-.3,0-.42-.11-.42-.41v-7.7c0-.3.12-.41.42-.41Z"/><path class="cls-2" d="M92.82,31.77c0-2,1.24-3.13,3.43-3.13s3.42,1.18,3.42,3.13v2.61c0,2-1.25,3.13-3.42,3.13s-3.43-1.17-3.43-3.13Zm5.35,0c0-1.1-.68-1.71-1.92-1.71s-1.92.6-1.92,1.71V34.4c0,1.12.68,1.71,1.92,1.71s1.92-.61,1.92-1.71Z"/><path class="cls-3" d="M31,42.59c0-.91.54-1.44,1.59-1.44a1.4,1.4,0,0,1,1.53,1,.14.14,0,0,1-.09.19l-.19.07a.13.13,0,0,1-.18-.09,1,1,0,0,0-1.08-.72c-.71,0-1.09.37-1.09,1v1.12a1,1,0,0,0,1.09,1,1,1,0,0,0,1.09-.75.15.15,0,0,1,.19-.09l.19.06a.13.13,0,0,1,.09.19,1.47,1.47,0,0,1-1.57,1c-1,0-1.56-.53-1.56-1.44Z"/><path class="cls-3" d="M37.85,41.26c.1,0,.13,0,.13.13v3.49c0,.1,0,.13-.13.13h-.23c-.11,0-.13,0-.13-.13V41.71H35.41v3.17a.12.12,0,0,1-.13.13H35a.12.12,0,0,1-.13-.13V41.39a.12.12,0,0,1,.13-.13Z"/><path class="cls-3" d="M40.33,41.15a1.27,1.27,0,0,1,1.46,1.45v1.91c0,.26-.06.33-.26.42a3.17,3.17,0,0,1-1.21.19,2,2,0,0,1-1.24-.28,1,1,0,0,1-.34-.85c0-.83.45-1.13,1.61-1.13a9.12,9.12,0,0,1,1,.07v-.34c0-.64-.25-1-1-1a1.07,1.07,0,0,0-1,.53.13.13,0,0,1-.18.06l-.18-.07c-.1,0-.12-.09-.07-.19A1.51,1.51,0,0,1,40.33,41.15Zm1,2.18q-.66-.07-1-.07c-.77,0-1.05.21-1.05.72s.23.73,1,.73a2.64,2.64,0,0,0,.88-.12c.12-.05.14-.07.14-.21Z"/><path class="cls-3" d="M44.29,42.59c0-.91.54-1.44,1.59-1.44a1.4,1.4,0,0,1,1.53,1,.14.14,0,0,1-.09.19l-.19.07A.13.13,0,0,1,47,42.3a1,1,0,0,0-1.08-.72c-.71,0-1.09.37-1.09,1v1.12a1,1,0,0,0,1.09,1A1,1,0,0,0,47,43.93a.15.15,0,0,1,.19-.09l.19.06a.13.13,0,0,1,.09.19,1.47,1.47,0,0,1-1.57,1c-1,0-1.56-.53-1.56-1.44Z"/><path class="cls-3" d="M49.57,41.15A1.27,1.27,0,0,1,51,42.59v1.91c0,.26-.06.33-.26.42a3.17,3.17,0,0,1-1.21.19,2,2,0,0,1-1.24-.28A1,1,0,0,1,48,44c0-.83.45-1.13,1.61-1.13a9.12,9.12,0,0,1,1,.07v-.34c0-.64-.25-1-1-1a1.07,1.07,0,0,0-1,.53.13.13,0,0,1-.18.06l-.18-.07c-.1,0-.12-.09-.07-.19A1.51,1.51,0,0,1,49.57,41.15Zm1,2.18q-.66-.07-1-.07c-.77,0-1.05.21-1.05.72s.23.73,1,.73a2.64,2.64,0,0,0,.88-.12c.12-.05.14-.07.14-.21Z"/><path class="cls-3" d="M54.81,41.26a.12.12,0,0,1,.13.13v3.49a.12.12,0,0,1-.13.13h-.23a.12.12,0,0,1-.13-.13V41.72H52.79v.9a4,4,0,0,1-.31,1.87,1.36,1.36,0,0,1-.69.62.11.11,0,0,1-.16-.07l-.11-.23c0-.07,0-.11.05-.15a.85.85,0,0,0,.4-.31,1,1,0,0,0,.18-.35,5.37,5.37,0,0,0,.15-1.42v-1.2c0-.1,0-.13.13-.13Z"/><path class="cls-3" d="M55.74,42.49c0-.84.61-1.34,1.6-1.34s1.62.5,1.62,1.34v1.29c0,.84-.61,1.34-1.62,1.34s-1.6-.51-1.6-1.34Zm2.72,0c0-.56-.42-.9-1.12-.9s-1.11.34-1.11.9v1.29c0,.56.44.89,1.11.89s1.12-.34,1.12-.89Z"/><path class="cls-3" d="M62.77,41.26a.12.12,0,0,1,.13.13v3.49a.12.12,0,0,1-.13.13h-.23a.12.12,0,0,1-.13-.13V43.31H60.29v1.57a.12.12,0,0,1-.13.13h-.23a.12.12,0,0,1-.13-.13V41.39a.12.12,0,0,1,.13-.13h.23a.12.12,0,0,1,.13.13v1.47h2.11V41.39a.12.12,0,0,1,.13-.13Z"/></g></g></svg>