<svg xmlns="http://www.w3.org/2000/svg" viewBox="0 0 192.13 54.03"><defs><style>.cls-1{fill:#1c75bc;}</style></defs><title>lo_5</title><g id="Layer_2" data-name="Layer 2"><g id="Layer_1-2" data-name="Layer 1"><path class="cls-1" d="M177.46,32.79a4,4,0,0,1-4,4H22.36a4,4,0,0,1-4-4h0a4,4,0,0,1,4-4H173.42a4,4,0,0,1,4,4Z"/><path class="cls-1" d="M189.51,25.12V38.24h2.62V25.12Z"/><path class="cls-1" d="M171,10.21V53.14h8.73V10.21Z"/><path class="cls-1" d="M181.11,16.8V46.55h7c0-.16,0-29.59,0-29.75Z"/><path class="cls-1" d="M2.62,38.24V25.12H0V38.24Z"/><path class="cls-1" d="M21.15,53.14V10.21H12.42V53.14Z"/><path class="cls-1" d="M11,46.55V16.8H4C4,17,4,46.4,4,46.55Z"/><path d="M59.36.84V3.1H51V21.74h-2.7V.84Z"/><path d="M67.88,1.08a31.3,31.3,0,0,1,5.18-.4c2.67,0,4.62.62,5.86,1.74a5.62,5.62,0,0,1,1.83,4.37,6.15,6.15,0,0,1-1.61,4.46,8.66,8.66,0,0,1-6.39,2.29,9.33,9.33,0,0,1-2.17-.19v8.37h-2.7Zm2.7,10.08a9,9,0,0,0,2.23.22c3.26,0,5.24-1.58,5.24-4.46s-2-4.09-4.93-4.09A11.32,11.32,0,0,0,70.58,3Z"/><path d="M93.12.84V9.64c0,3.32-.06,6-.25,8.84l.06,0c1.05-2.17,2.36-4.43,3.88-6.91L103.57.84h2.7v20.9h-2.54v-8.9c0-3.38,0-5.86.25-8.5l-.09,0a63.67,63.67,0,0,1-3.88,7L93.46,21.74H90.58V.84Z"/><path d="M127.37,0V1.86c4.4.19,8.81,2.85,8.81,9.43s-4.4,9.08-8.84,9.33v2h-2.6v-2c-4.37-.28-8.81-2.6-8.81-9.21,0-6.85,4.84-9.3,8.87-9.55V0Zm-2.6,3.81c-2.73.16-6,2-6,7.47,0,5,3,7.1,6,7.41Zm2.57,14.88c3-.25,6-2.26,6-7.44,0-5.36-3-7.29-6-7.44Z"/><path d="M34.82,46.68H36l.95,2.63c.13.39.36,1,.47,1.43h0c.12-.39.41-1.22.61-1.79l.84-2.27h1.17l.37,5.21h-.91l-.12-2.49c0-.56-.08-1.23-.1-1.86h0c-.14.47-.28.89-.57,1.69l-1,2.63H37l-.93-2.58c-.16-.5-.39-1.25-.52-1.73h0c0,.61-.05,1.3-.09,1.88l-.13,2.47h-.87Z"/><path d="M46.69,51.89l-.08-.66h0A1.94,1.94,0,0,1,45,52a1.49,1.49,0,0,1-1.59-1.5c0-1.26,1.12-2,3.13-1.94v-.11a1.07,1.07,0,0,0-1.18-1.21,2.59,2.59,0,0,0-1.36.39L43.77,47a3.23,3.23,0,0,1,1.71-.46c1.59,0,2,1.09,2,2.13v1.95a7.37,7.37,0,0,0,.09,1.25Zm-.14-2.66c-1,0-2.21.16-2.21,1.17a.84.84,0,0,0,.89.9,1.3,1.3,0,0,0,1.26-.87,1,1,0,0,0,.05-.3Z"/><path d="M54.33,46.68v.76H52.07v4.45h-.94V46.68Z"/><path d="M60.19,51.89l-.08-.66h0a1.94,1.94,0,0,1-1.59.78,1.49,1.49,0,0,1-1.59-1.5c0-1.26,1.12-2,3.13-1.94v-.11a1.07,1.07,0,0,0-1.18-1.21,2.59,2.59,0,0,0-1.36.39L57.27,47A3.23,3.23,0,0,1,59,46.56c1.59,0,2,1.09,2,2.13v1.95a7.36,7.36,0,0,0,.09,1.25ZM60,49.23c-1,0-2.21.16-2.21,1.17a.84.84,0,0,0,.89.9A1.3,1.3,0,0,0,60,50.44a1,1,0,0,0,.05-.3Z"/><path d="M65.08,48.87h.45c.8,0,1.34-.37,1.34-.85s-.42-.75-1-.75a2.51,2.51,0,0,0-1.26.37L64.36,47a3.31,3.31,0,0,1,1.73-.47c.8,0,1.77.36,1.77,1.37a1.33,1.33,0,0,1-1.17,1.18v0a1.39,1.39,0,0,1,1.42,1.3C68.11,51.58,67,52,65.85,52a3.57,3.57,0,0,1-1.69-.42l.25-.64a3,3,0,0,0,1.38.36c.79,0,1.28-.38,1.28-.89,0-.7-.73-.89-1.52-.89h-.47Z"/><path d="M72.32,46.68v2.2c0,.83,0,1.35-.05,2.09h0c.31-.64.5-1,.84-1.6l1.63-2.69h1.11v5.21H75V49.69c0-.85,0-1.29.07-2.13h0c-.33.67-.56,1.09-.86,1.62-.5.81-1.07,1.81-1.63,2.73H71.42V46.68Z"/><path d="M80.48,46.68v2.1H83v-2.1h.94v5.21H83V49.54H80.48v2.36h-.94V46.68Z"/><path d="M92.91,46.68v2.2c0,.83,0,1.35-.05,2.09h0c.31-.64.5-1,.84-1.6l1.63-2.69h1.11v5.21h-.9V49.69c0-.85,0-1.29.06-2.13h0c-.33.67-.56,1.09-.86,1.62-.5.81-1.07,1.81-1.63,2.73H92V46.68Z"/><path d="M101.07,46.68v2.1h2.48v-2.1h.94v5.21h-.94V49.54h-2.48v2.36h-.94V46.68Z"/><path d="M108.17,46.75a11.13,11.13,0,0,1,1.66-.12c.87,0,2.32.14,2.32,1.3a1.23,1.23,0,0,1-1.09,1.17v0c.76.11,1.32.54,1.32,1.29,0,1.37-1.72,1.54-2.75,1.54-.58,0-1.18,0-1.46-.06Zm.89,4.52a5.76,5.76,0,0,0,.76,0c.64,0,1.58-.15,1.58-.9s-.75-.92-1.66-.92h-.69Zm0-2.4h.71c.7,0,1.42-.2,1.42-.82s-.45-.76-1.4-.76a6.71,6.71,0,0,0-.73,0Z"/><path d="M116.26,49.46A1.67,1.67,0,0,0,118,51.27a3.42,3.42,0,0,0,1.44-.27l.16.68a4.21,4.21,0,0,1-1.73.32,2.42,2.42,0,0,1-2.56-2.63,2.53,2.53,0,0,1,2.45-2.81A2.21,2.21,0,0,1,120,49a3.53,3.53,0,0,1,0,.44Zm2.78-.68a1.35,1.35,0,0,0-1.31-1.54,1.57,1.57,0,0,0-1.45,1.54Z"/><path d="M124.2,46.68v2.1h2.48v-2.1h.94v5.21h-.94V49.54H124.2v2.36h-.94V46.68Z"/><path d="M134.81,46.68v.75h-1.63v4.46h-.94V47.43h-1.63v-.75Z"/><path d="M140.6,51.89l-.08-.66h0a1.94,1.94,0,0,1-1.59.78,1.49,1.49,0,0,1-1.59-1.5c0-1.26,1.12-2,3.13-1.94v-.11a1.08,1.08,0,0,0-1.19-1.21,2.6,2.6,0,0,0-1.36.39l-.21-.62a3.23,3.23,0,0,1,1.71-.46c1.59,0,2,1.09,2,2.13v1.95a7.37,7.37,0,0,0,.09,1.25Zm-.14-2.66c-1,0-2.21.16-2.21,1.17a.84.84,0,0,0,.89.9,1.3,1.3,0,0,0,1.26-.87,1,1,0,0,0,.05-.3Z"/><path d="M145.06,48.38c0-.67,0-1.21,0-1.7h.85l0,.89h0a2.05,2.05,0,0,1,1.85-1A2.36,2.36,0,0,1,150,49.21c0,1.88-1.14,2.8-2.37,2.8a1.83,1.83,0,0,1-1.61-.82h0V54h-.94Zm.94,1.39a2.14,2.14,0,0,0,0,.39,1.46,1.46,0,0,0,1.42,1.11c1,0,1.58-.82,1.58-2,0-1-.55-1.94-1.55-1.94a1.51,1.51,0,0,0-1.43,1.17,1.58,1.58,0,0,0-.06.39Z"/><path d="M157.15,51.89h-.94V49.71h-.7a1.23,1.23,0,0,0-.87.29,3.62,3.62,0,0,0-.73,1.46,3.1,3.1,0,0,1-.21.43h-1a3.42,3.42,0,0,0,.32-.59,4,4,0,0,1,.82-1.57,1.24,1.24,0,0,1,.59-.3v0A1.39,1.39,0,0,1,153,48.1a1.25,1.25,0,0,1,.69-1.13,3.65,3.65,0,0,1,1.75-.36,14.53,14.53,0,0,1,1.68.11Zm-.94-4.59a5.33,5.33,0,0,0-.79-.05c-.65,0-1.41.18-1.41.9s.83.91,1.39.91h.81Z"/></g></g></svg>