<svg xmlns="http://www.w3.org/2000/svg" viewBox="0 0 161.71 166.32"><defs><style>.cls-1{fill:#9f928a;}.cls-2{fill:#423856;}.cls-3{fill:#dc1d3e;}.cls-4{fill:#f0eadf;}.cls-5{fill:#f6edde;}</style></defs><title>lo_1</title><g id="Layer_2" data-name="Layer 2"><g id="Layer_1-2" data-name="Layer 1"><path class="cls-1" d="M78,165.2c-24.85.07-49.68.5-74.53,1.08l-1.56,0-.32-1.53c-.3-1.42-.59-2.85-.87-4.28a14.53,14.53,0,0,1,.6-7.24q1.55-4.73,3.09-9.44a2.89,2.89,0,0,0-1.29-3.52c-2.32-1.34-3.46-4-3.07-7,.76-6,1.61-12.07,2.53-18.07l.53-3.46,3.06.15c23.94,1.14,47.93,1.55,71.83,1.55s47.89-.41,71.83-1.55l3.06-.15.53,3.46c.92,6,1.77,12.08,2.53,18.08.39,3.07-.75,5.68-3.07,7a2.9,2.9,0,0,0-1.29,3.52q1.53,4.69,3.09,9.43a14.52,14.52,0,0,1,.59,7.23c-.28,1.42-.57,2.86-.86,4.28l-.32,1.53-1.56,0C127.71,165.7,102.87,165.27,78,165.2Z"/><path class="cls-2" d="M78,116.23c-24.26-.06-48.5-.36-72.75-1.42q-1.38,9-2.53,18a4.72,4.72,0,0,0,2.19,4.89c2.07,1.21,2.9,3.7,2,6.34l-3.1,9.41a11.33,11.33,0,0,0-.47,5.7q.41,2.13.86,4.25,73.8-1.47,147.52,0,.45-2.12.86-4.25a11.32,11.32,0,0,0-.47-5.7l-3.1-9.41c-.87-2.65,0-5.13,2-6.34a4.72,4.72,0,0,0,2.19-4.89q-1.14-9-2.53-18C126.52,115.87,102.29,116.18,78,116.23Z"/><path class="cls-3" d="M12.67,157.43V121.64H24v26.79H42v9Z"/><path class="cls-3" d="M46.46,157.43V121.64H57.77v35.79Z"/><path class="cls-3" d="M72.81,157.43q-9,0-9-6.26v-23q0-6.55,9-6.55h18q9,0,9,6.55v23q0,6.26-9,6.26ZM88.5,132q0-1.41-2-1.41H77.12q-2,0-2,1.41v15q0,1.41,2,1.41h9.41q2,0,2-1.41Z"/><path class="cls-3" d="M134.32,157.43,117.13,138.5v18.93H105.82V121.64h10.85l15.82,18.7v-18.7H143.8v35.79Z"/><path class="cls-1" d="M152,52l1.24-.18,7-20.51-7.07-1a48.11,48.11,0,0,1-7.42-1.91c-.64-.22-1.27-.45-1.88-.69-4.56-1.8-8-4-10.12-6.56A14.75,14.75,0,0,0,127,16.4a12.74,12.74,0,0,0-4.68-.73A40.46,40.46,0,0,0,104.37,3.06a37.82,37.82,0,0,0-16.93-1.7,123.36,123.36,0,0,0-37,11L32.69,21.3,21,27.8l13.37-1.2,11.13-1.72a44,44,0,0,0-10.72,24,34.84,34.84,0,0,0-2.6,8.54,28.32,28.32,0,0,0,4.29,20.91c3.5,5.19,4,7.43,3.78,8.4C40,88,37.71,90,33.47,92.68l-.13.08a19.65,19.65,0,0,0-5.24,5.57,19.86,19.86,0,0,0-2.4,15.93l4.64,18.36L37,115A12,12,0,0,1,39.82,111c2.33-2.06,5.12-2.46,8.8-1.28.57.21,1.72.75,2.84,1.27a105.65,105.65,0,0,0,10.82,4.5c16.72,5.74,31.89,4.32,45.05-4.21,10.45-6.54,16.58-16.16,19.46-21.74l5.85.57,1.9-1.58c1.08-.9,6.56-5.58,8.49-10a6.34,6.34,0,0,0,.32-.93,6,6,0,0,0-.35-5.27,7.9,7.9,0,0,0-2.4-2.5,17.12,17.12,0,0,0-1-4.4l-1.23-3.4,3.69-.67C147.31,60.51,150.34,55.92,152,52Z"/><path class="cls-4" d="M148.68,46l1,.8s-2.15,9.69-8.25,10.8l3-11.21Z"/><path class="cls-2" d="M138,60.79l4.44-16.7,7.09-.64,2.91,2.44-.33,1.48c-.26,1.16-2.73,11.36-10.24,12.72Zm8.37-12-.18.67c.1-.23.19-.46.27-.68Z"/><path class="cls-2" d="M129.29,82.71a4,4,0,0,1-2.14-.62L120.72,78a4,4,0,0,1-1.86-3.44L119,64a4,4,0,0,1,3.36-3.89,4.06,4.06,0,0,1,.64-.05,4,4,0,0,1,3.77,2.69c2.56,7.35,5.17,7.36,6.58,7.36h1c3.71,0,6,1.7,7,3.29a4,4,0,0,1-.51,4.73l-1.55,1.68a4,4,0,0,1-2,1.19l-7,1.63A4,4,0,0,1,129.29,82.71Z"/><path class="cls-2" d="M123,64.07c3.19,9.15,7.39,10,10.37,10h1c2.73,0,3.5,1.31,3.5,1.31l-1.55,1.68-7,1.63-6.42-4.07L123,64.07m0-8a8,8,0,0,0-8,7.88l-.16,10.57a8,8,0,0,0,3.71,6.88L125,85.47a8,8,0,0,0,6.09,1l7-1.63a8,8,0,0,0,4.09-2.38l1.55-1.68a8,8,0,0,0,1-9.45c-.72-1.24-3.61-5.27-10.41-5.27h-1.31c-.24-.2-1.29-1.23-2.48-4.66A8,8,0,0,0,123,56.07Z"/><path class="cls-4" d="M134.86,78.18A13.35,13.35,0,0,0,136,66.85l-5.38,10.8Z"/><path class="cls-2" d="M136.08,80.85l-9.3-1.16,9.55-19.18,2,5.48a15.87,15.87,0,0,1-1.38,13.58Z"/><path class="cls-2" d="M28.06,113.67A17.55,17.55,0,0,1,34.7,94.79l.09-.05c5.07-3.19,7.42-5.43,7.86-7.5S41.78,81.83,38.5,77c-8-11.79-2.82-24.35-1.34-27.44,1.4-13.34,8.66-22.46,15.5-28.23L31.59,24.57l19.95-10A120.69,120.69,0,0,1,87.73,3.78a38.27,38.27,0,0,1,4.55-.28c15.68,0,25.21,9.89,28.94,14.74a8.25,8.25,0,0,1,1.54-.14,12.51,12.51,0,0,1,9.1,4.49C134.27,25.5,138,28,143,29.95a50.39,50.39,0,0,0,9.83,2.74l4.16.62-5.59,16.32-2.12.3c-5.64.81-15.66,3.24-18.53,6.29-6.12,6.81-3,14.71-.72,16.84a2.42,2.42,0,0,0,1.79.59,9.57,9.57,0,0,0,3.73-1A3.87,3.87,0,0,1,140.49,74a3.8,3.8,0,0,1,.32,3.6c-1.71,3.9-6.81,8.25-7.82,9.09l-1.12.93-6.5-.63c-2.29,4.79-8.3,15.36-19.34,22.27a44.3,44.3,0,0,1-24.45,7.27c-12.57,0-23.31-5-29.09-7.72-1.32-.62-2.46-1.15-3.11-1.38a14.69,14.69,0,0,0-4.5-.77c-7.28,0-10.11,7.29-10.14,7.37L30.8,124.51Z"/><path class="cls-2" d="M92.27,7C110.84,7,120,22.61,120,22.61a3.59,3.59,0,0,1,1.08-.69h0a4.32,4.32,0,0,1,1.67-.31c2.74,0,5.76,2.11,6.27,3.06,3.3,4.06,8.24,6.78,12.72,8.55a53.28,53.28,0,0,0,10.61,2.95l-3.54,10.31s-15.8,2.26-20.59,7.37c-7.35,8.18-4.38,18.28-.54,21.81a6,6,0,0,0,4.16,1.51,12.85,12.85,0,0,0,5.25-1.34.36.36,0,0,1,.15,0,.35.35,0,0,1,.34.46c-1.46,3.32-6.84,7.78-6.84,7.78l-7.58-.74s-5.51,14.58-19,23a40.76,40.76,0,0,1-22.59,6.74c-14.82,0-27-7.49-31-8.9a18.2,18.2,0,0,0-5.66-1c-9.79,0-13.42,9.64-13.42,9.64A14.12,14.12,0,0,1,36.64,97.7c10.79-6.77,12.62-11,4.75-22.69s-.82-24.49-.82-24.49c2.17-24.36,25.69-33.8,26-33.87-1.53.14-8.48.28-13.45,1a117.41,117.41,0,0,1,35-10.44A34.61,34.61,0,0,1,92.27,7m0-7a41.76,41.76,0,0,0-5,.3A124.53,124.53,0,0,0,50,11.44l-39.89,20L42.9,26.36a44.55,44.55,0,0,0-9.16,22.23c-2,4.36-6.67,17.71,1.85,30.33,3.87,5.73,3.66,7.41,3.62,7.58-.07.35-.75,1.78-6.3,5.26l-.09.05-.08.06a20.94,20.94,0,0,0-8.08,22.65l5.74,22.71L38,115.32c.3-.72,2.35-5.14,6.88-5.13a11.28,11.28,0,0,1,3.39.59c.52.2,1.65.72,2.73,1.23,6,2.81,17.22,8.05,30.57,8.05a47.79,47.79,0,0,0,26.35-7.83c10.24-6.42,16.42-15.79,19.47-21.5l2.68.26,2.9.28,2.25-1.86c1.56-1.3,6.81-5.87,8.78-10.36a7.35,7.35,0,0,0-6.75-10.28,7.4,7.4,0,0,0-3.16.71,7,7,0,0,1-2,.64,9.51,9.51,0,0,1,1.25-11.56c1.85-1.89,10.16-4.29,16.43-5.18l4.24-.61,1.39-4.05L159,38.42l2.74-8-8.35-1.21a47,47,0,0,1-9.05-2.54c-4.35-1.71-7.71-3.89-9.73-6.29a16,16,0,0,0-11.82-5.8C118,9,107.89,0,92.27,0Z"/><path class="cls-1" d="M128.23,53.83c-7.35,8.18-4.38,18.28-.54,21.81,3,2.78,7.6,1,9.41.17a.35.35,0,0,1,.49.43c-1.46,3.32-6.84,7.78-6.84,7.78l-4.06-.4-2.54-.25-1-.09A24.17,24.17,0,0,1,115.42,71c-1.7-6.07-1.5-12.36-1.47-18.55S113.78,39.9,111.34,34c-.89-2.14-2.08-4.24-2.35-6.5s.7-4.81,3-5.53c1.77-.57,6.19.92,8.05.61a1.56,1.56,0,0,0,1.08-.69h0c3-1.26,7.32,1.6,7.94,2.74a22.84,22.84,0,0,0,4.27,4l.83.59h0l.46.31.87.55.6.36.88.5a42.4,42.4,0,0,0,4.81,2.24,53.28,53.28,0,0,0,10.61,2.95l-3.54,10.31s-3.73.53-8.11,1.67c-1.65.43-3.39.94-5.06,1.54C132.61,50.75,129.81,52.13,128.23,53.83Z"/><path class="cls-2" d="M131.86,87.64l-10.07-1L121,86A27.58,27.58,0,0,1,112,72c-1.69-6-1.65-12.1-1.61-18V52.44c0-5.72-.14-11.76-2.34-17.08-.2-.49-.42-1-.65-1.47a20.29,20.29,0,0,1-1.94-6c-.5-4.22,1.75-8.12,5.36-9.28,1.59-.51,3.87-.21,6,.16.62.11,1.3.22,1.84.28h0l1-.4a7.77,7.77,0,0,1,3-.59,12.51,12.51,0,0,1,9.1,4.49,19.54,19.54,0,0,0,3.51,3.25l.69.49,0,0,.39.26.78.49.56.34.8.45a39,39,0,0,0,4.41,2,49.82,49.82,0,0,0,9.83,2.74l4.18.61-5.6,16.32-2.12.3s-3.61.52-7.73,1.59c-1.75.46-3.35.94-4.75,1.44-3.92,1.41-5.47,2.65-6,3.26-6.12,6.81-3,14.71-.72,16.84a2.42,2.42,0,0,0,1.79.59,9.57,9.57,0,0,0,3.73-1A3.87,3.87,0,0,1,140.49,74a3.8,3.8,0,0,1,.32,3.6c-1.71,3.9-6.81,8.25-7.82,9.09Zm-7.25-7.74,4.81.47a9.09,9.09,0,0,1-4.1-2.16c-5.31-4.88-8.26-17.2.3-26.73,1.86-2,4.74-3.65,8.83-5.12,1.6-.57,3.4-1.12,5.37-1.63,2.5-.65,4.79-1.1,6.36-1.39l1.57-4.58a58.34,58.34,0,0,1-7.29-2.31A45.87,45.87,0,0,1,135.25,34l-1-.54-.7-.42-.94-.6-.3-.2-.2-.14c-.32-.22-.64-.44-.95-.67a26.29,26.29,0,0,1-4.89-4.61l-.24-.31a6.41,6.41,0,0,0-3.24-1.45,5.09,5.09,0,0,1-2.26,1,16.22,16.22,0,0,1-4.81-.34,20.68,20.68,0,0,0-2.75-.36h-.06a2.08,2.08,0,0,0-.47,1.75A14.65,14.65,0,0,0,113.84,31c.25.56.5,1.11.73,1.67,2.7,6.52,2.9,13.35,2.88,19.79v1.58c0,5.62-.08,10.93,1.35,16A21,21,0,0,0,124.61,79.9Z"/><path class="cls-2" d="M152.35,36.15l-3.07,9a6.71,6.71,0,0,1-.81-1.07,6.11,6.11,0,0,1-.34-5.51,10,10,0,0,1-3.75-.09,4.13,4.13,0,0,1-2.85-2.24,3.89,3.89,0,0,1,.15-2.83l.07-.18A53.28,53.28,0,0,0,152.35,36.15Z"/><path class="cls-2" d="M149.28,49.11a4,4,0,0,1-2.92-1.27,10.75,10.75,0,0,1-1.3-1.7,9.6,9.6,0,0,1-1.33-3.73l-.36-.09a8.06,8.06,0,0,1-5.56-4.64,7.78,7.78,0,0,1,.15-5.76l.09-.22a4.06,4.06,0,0,1,5.17-2.22,49.2,49.2,0,0,0,9.72,2.71,4,4,0,0,1,3.21,5.26l-3.07,9a4,4,0,0,1-3.78,2.7Z"/><path class="cls-2" d="M129,33.26h0a3,3,0,0,1-1.66.71,5.41,5.41,0,0,1-2.11-.18,7.29,7.29,0,0,1-1-.37,9.14,9.14,0,0,1-1-.5,16.4,16.4,0,0,1-1.63-1.12c-.49-.37-.93-.73-1.34-1l-.31-.23-.29-.2c-.2-.13-.41-.26-.62-.38a6.32,6.32,0,0,0-1.35-.57,3.75,3.75,0,0,0-1.56-.12h0A2.38,2.38,0,0,1,117.37,28a4.43,4.43,0,0,1,2.14-.36,5.69,5.69,0,0,1,1.15.19c.19,0,.38.12.57.18l.53.22a10,10,0,0,1,1.84,1.13c.54.41,1,.83,1.43,1.22l.61.56.6.52A7,7,0,0,0,129,33.26Z"/><path class="cls-2" d="M134.12,29.25a6.58,6.58,0,0,0-1.48.48c-.18.07-.35.18-.52.26s-.34.19-.48.31a5.65,5.65,0,0,0-.84.73,4.49,4.49,0,0,0-1,1.75,3.1,3.1,0,0,1,.51-2.11,4.12,4.12,0,0,1,.84-1,4.76,4.76,0,0,1,.53-.4,5.21,5.21,0,0,1,.6-.32,5,5,0,0,1,1.05-.35Z"/><path class="cls-2" d="M135.44,30.1a6.19,6.19,0,0,0-.81.31c-.18.07-.35.18-.52.26s-.33.2-.48.31a5.33,5.33,0,0,0-.84.73,4.48,4.48,0,0,0-1,1.75,3.11,3.11,0,0,1,.51-2.11,4.23,4.23,0,0,1,.84-.95,4.74,4.74,0,0,1,.53-.4,5.54,5.54,0,0,1,.6-.32l.34-.14Z"/><path class="cls-2" d="M136.93,31l-.3.13c-.18.07-.35.18-.52.26s-.33.2-.48.31a5.32,5.32,0,0,0-.84.73,4.44,4.44,0,0,0-1,1.75,3.11,3.11,0,0,1,.51-2.11,4.29,4.29,0,0,1,.84-1,5,5,0,0,1,.54-.4l.41-.23Z"/><path class="cls-2" d="M126.69,83.62l-2.54-.25c-.36-.4-.72-.82-1.07-1.27s-.89-1.23-1.31-1.88-.78-1.34-1.13-2a39.16,39.16,0,0,1-2.71-7.87c-.27-1.09-.47-2-.61-2.64l-.22-1,.3,1c.2.63.48,1.52.84,2.59a39.25,39.25,0,0,0,3.31,7.54c.39.64.8,1.26,1.24,1.86s.9,1.15,1.38,1.67A18.68,18.68,0,0,0,126.69,83.62Z"/><path class="cls-3" d="M109,53.92a41.69,41.69,0,0,1,.32,5.88,13.91,13.91,0,0,0-2.15-4.88l-3.54-5.1,1.08,6.05a24.34,24.34,0,0,1,.1,7.9,23.41,23.41,0,0,1-2.47,7.49,25.05,25.05,0,0,1-4.64,6.14A30.46,30.46,0,0,1,92,81.75a20.43,20.43,0,0,0,7-2.93,20.4,20.4,0,0,0,9.12-14.49q.09-.67.13-1.35a15.08,15.08,0,0,1,.34,4c-.16.88-.33,1.73-.5,2.55a18.15,18.15,0,0,0,3.6-6.88,22.6,22.6,0,0,0,.62-9A24.27,24.27,0,0,0,109.41,45a21.5,21.5,0,0,0-5.31-6.28h0a56.48,56.48,0,0,1,3,7.11A43.42,43.42,0,0,1,109,53.92Z"/><path class="cls-3" d="M85.3,64c-.75-2.41-1.63-4.7-2.24-6.94a19.82,19.82,0,0,1-.83-6.53A11.75,11.75,0,0,1,82.44,49a9,9,0,0,1,1.9-4,8,8,0,0,1,5-2.91h0a7.53,7.53,0,0,0-3.11.33,8.81,8.81,0,0,0-2.93,1.61A10.18,10.18,0,0,0,81,46.73a10.31,10.31,0,0,0-.76,1.65,12.07,12.07,0,0,0-.49,1.77A18.7,18.7,0,0,0,80,57.61c.53,2.48,1.37,4.86,2.09,7.17a29.72,29.72,0,0,1,1.49,6.77,11.72,11.72,0,0,1-1,6.14,9,9,0,0,1-4.33,4.05,12.23,12.23,0,0,1-5.93,1.12,11.54,11.54,0,0,0,6.51.17,11.05,11.05,0,0,0,3.29-1.47l.2-.13.19-.14.37-.28c.24-.2.47-.41.7-.63a10,10,0,0,0,1.21-1.47,11.07,11.07,0,0,0,1.54-3.5,15,15,0,0,0,.43-3.83,19.3,19.3,0,0,0-.12-1.94c-.08-.65-.18-1.29-.31-1.92A37.26,37.26,0,0,0,85.3,64Z"/><path class="cls-3" d="M98.49,104.41a31,31,0,0,1-8.31-.13l-.24,0-.09,0-.18,0-.34-.09a4.44,4.44,0,0,1-.57-.2l-.23-.1-.19-.11-.08,0,0,0h.1l.37,0,.84-.09h.18l.25,0,.24,0,.81-.24a34.93,34.93,0,0,0,16.79-10.94l6.75-7.92-9.07,5.62a18.38,18.38,0,0,1-2.34,1.21c-.42.18-.86.35-1.29.53l-1.33.48c-1.79.62-3.65,1.17-5.52,1.66-3.75,1-7.58,1.8-11.4,2.49S76,97.53,72.18,97.93q-1.52.16-3,.27a32.61,32.61,0,0,0,6-3,40.25,40.25,0,0,0,5.31-4.07c1.6-1.43,3.05-2.9,4.42-4.35h0c-1.55,1.28-3.17,2.58-4.91,3.83a44.91,44.91,0,0,1-5.58,3.5A33.92,33.92,0,0,1,68,96.71a43.64,43.64,0,0,1-7.19,1.37l-5.63.63,5.6,1.51a17.48,17.48,0,0,0,3,.48c.49,0,1,.07,1.47.08l.74,0h.73c2,0,3.9-.08,5.85-.21,3.9-.28,7.81-.76,11.73-1.39S92.16,97.8,96,96.8q1.44-.37,2.86-.79a32.44,32.44,0,0,1-3.24,2.06,34,34,0,0,1-5.7,2.51l-.74.25-1.37.35-1.36.35-.17,0-.21,0-.43.07-.86.14c-1.15.18-2.22.37-3.5.53l-3.52.49.85.39.2.1.42.14.86.29,1.7.57,1.55.49.77.24.38.12c.12,0,.28.07.42.11l1.68.4.83.19.43.08.44.08c.29.06.6.09.9.12l.77.09a30.79,30.79,0,0,0,8.8-.43,29.09,29.09,0,0,0,7.67-2.62,24.85,24.85,0,0,0,6-4.24A28.94,28.94,0,0,1,98.49,104.41Z"/><path class="cls-3" d="M46.34,95.74c1.13-.4,2.32-.81,3.51-1.29a21.68,21.68,0,0,0,3.5-1.76c.28-.17.55-.36.82-.55s.53-.4.77-.62a10.62,10.62,0,0,0,1.33-1.39,8.23,8.23,0,0,0,1.62-3.2,5.69,5.69,0,0,0-.1-3.15h0a8.89,8.89,0,0,1-3.4,4.7,13.82,13.82,0,0,1-1.32.89c-.23.14-.47.27-.7.4l-.75.38c-1,.5-2.11.95-3.24,1.41s-2.3.93-3.44,1.49A18.86,18.86,0,0,0,41.68,95a11.06,11.06,0,0,0-2.48,2.54A6.88,6.88,0,0,0,38,100.38,14.61,14.61,0,0,1,43.11,97C44.13,96.54,45.2,96.14,46.34,95.74Z"/><path class="cls-3" d="M47.3,99.71a13.37,13.37,0,0,0-7.83.35,11.62,11.62,0,0,0-5.82,4.69,9.88,9.88,0,0,0-1.27,3.08,8.47,8.47,0,0,0-.14,2.94,17.72,17.72,0,0,1,3.45-4.54A15.44,15.44,0,0,1,40.83,103a17,17,0,0,1,6.2-1,22,22,0,0,1,6,1,10.25,10.25,0,0,0-2.43-2A12.62,12.62,0,0,0,47.3,99.71Z"/><path class="cls-3" d="M55.58,79.54,62.45,86l-4.28-8.21a27.49,27.49,0,0,1-3-10,25.65,25.65,0,0,1,1-10,26.63,26.63,0,0,1,4.46-8.5,29.94,29.94,0,0,1,6.52-6.14,25,25,0,0,0-7.8,5.11,24.67,24.67,0,0,0-5.79,8.61,25,25,0,0,0-1.63,11,26.68,26.68,0,0,0,.56,3.82,53,53,0,0,1-4.77-6.86,54.19,54.19,0,0,1-5.46-13,37.59,37.59,0,0,0,3.43,13.89A44.5,44.5,0,0,0,55.58,79.54Z"/><path class="cls-3" d="M47.8,51.08l4.59-8.75A44.76,44.76,0,0,1,63,29.2a50.64,50.64,0,0,1,6.62-4.76A59.11,59.11,0,0,1,76.34,21,35.4,35.4,0,0,0,68.82,23a37.29,37.29,0,0,0-14.37,10.2l-.45.53c.32-1.29.68-2.56,1.06-3.79a78.64,78.64,0,0,1,4-10.12h0A39.48,39.48,0,0,0,53,29.18a43.84,43.84,0,0,0-3.7,12.17Z"/><path class="cls-1" d="M98.59,33.54a2.32,2.32,0,0,0-.37-.2,2.37,2.37,0,0,0-.82-.19h-.31a.66.66,0,0,0-.18,0,3,3,0,0,0-.41.13l-.46.19v-.07a0,0,0,0,1,0,0l.09-.22c.06-.15.12-.29.2-.44l.11-.23.06-.11.06-.09a2.65,2.65,0,0,1,.19-.28,4.49,4.49,0,0,1,1-1A4.93,4.93,0,0,1,99,30.39l.18-.06.19,0,.38-.08.19,0h.09a6.24,6.24,0,0,1-.4-.64,6.14,6.14,0,0,1-.54-1.39A5.85,5.85,0,0,1,99,26.69c0-.12,0-.24,0-.36L99,26c0-.1,0-.2,0-.29s.07-.37.11-.56l.06-.28,0-.14s0-.07,0-.1c.14.23.27.45.41.67s.27.45.41.63l.13.17.12.14.24.28a6.92,6.92,0,0,0,1.1,1l.07,0a13.92,13.92,0,0,0-.91-6.33l0,0a7,7,0,0,0-1-.75A8.84,8.84,0,0,0,98.9,20l-.46-.19-.24-.09L98,19.65a9.87,9.87,0,0,0-4.28-.44,9.07,9.07,0,0,0-2.23.55,8.08,8.08,0,0,0-2.05,1.14,8.61,8.61,0,0,0-2.79,3.67,8.52,8.52,0,0,0-.48,4.57,7.91,7.91,0,0,0,.72,2.22,8.93,8.93,0,0,0,1.26,1.91,9.76,9.76,0,0,0,3.43,2.56l.23.1L92,36l.47.17.22.06A10.6,10.6,0,0,0,98.59,33.54Z"/><path class="cls-5" d="M97,20.71a7.88,7.88,0,0,0-3.91,14,9.38,9.38,0,0,1-5.88-3.93A6.09,6.09,0,0,1,87.32,24,7.83,7.83,0,0,1,91,21.66,17.17,17.17,0,0,1,97,20.71Z"/></g></g></svg>