<svg xmlns="http://www.w3.org/2000/svg" viewBox="0 0 196.72 35.17"><defs><style>.cls-1{fill:#cc964e;}</style></defs><title>lo_4</title><g id="Layer_2" data-name="Layer 2"><g id="Layer_1-2" data-name="Layer 1"><path class="cls-1" d="M0,17.1l3.94-.42,3.44-.35L11.34,16c0,1.06,0,1.86,0,2.66s0,1.6,0,2.66l-3.94.51-3.44.47L0,22.8V17.1Z"/><path class="cls-1" d="M34.45,23.28c.36-1.9.68-3.6,1-5.19l.85-4.47.81-4.21L38,5c.3-1.55.62-3.2,1-5h8.72c0,1.77,0,3.41,0,5s0,3,0,4.41,0,2.76,0,4.09,0,2.65,0,4,0,2.69,0,4.09,0,2.86,0,4.41l0,5-3,.39-3,.42c0-1.82,0-3.46,0-5s0-2.95,0-4.33,0-2.73,0-4.11,0-2.8,0-4.33,0-3.17,0-5l-1,5-.86,4.42L39,22.66c-.28,1.43-.56,2.89-.87,4.48l-1,5.21-3,.47-3,.49-1-5-.85-4.4-.81-4.21-.85-4.48c-.3-1.59-.62-3.29-1-5.21,0,1.93,0,3.67,0,5.29s0,3.13,0,4.6,0,2.9,0,4.36,0,3,0,4.6,0,3.36,0,5.29l-2.72.51-2.72.52c0-1.76,0-3.41,0-5l0-4.48c0-1.43,0-2.8,0-4.15s0-2.67,0-4,0-2.64,0-4,0-2.72,0-4.15,0-2.91,0-4.48,0-3.21,0-5H30c.35,1.91.67,3.61,1,5.2l.84,4.47.8,4.21.84,4.39C33.79,19.81,34.1,21.46,34.45,23.28Z"/><path class="cls-1" d="M78.06,28.16l-3.18.17-3.19.2L71.17,26l-.53-2.56-3.87.23-3.86.27-.57,2.7-.57,2.7-2.89.28-2.89.3L57.07,25l1-4.32.88-4,.86-3.85.88-3.93c.3-1.35.62-2.74,1-4.22L62.65,0h9.18L73,5.27l1,4.62.95,4.28.95,4.27,1,4.56ZM63.74,19.9l3-.17,3-.16-1-5-.89-4.39-1-5.06L66,9.06l-.73,3.41-.72,3.43Z"/><path class="cls-1" d="M86.82,0h6.27c0,1.9,0,3.61,0,5.2s0,3.07,0,4.52,0,2.85,0,4.29,0,2.92,0,4.52,0,3.3,0,5.2l3.61,0h3.16l3.62,0c0,1.58,0,2.37,0,4l-4.49,0H95.09l-3.87.05-4.49.11c0-1.85,0-3.55,0-5.15s0-3.09,0-4.53,0-2.83,0-4.22,0-2.78,0-4.22,0-2.94,0-4.54S86.81,1.85,86.82,0Z"/><path class="cls-1" d="M111.84,0h6.27c0,1.88,0,3.59,0,5.21s0,3.13,0,4.59,0,2.86,0,4.27,0,2.81,0,4.27,0,3,0,4.58,0,3.34,0,5.21L115.1,28l-3.16-.12c0-1.86,0-3.56,0-5.16s0-3.1,0-4.54,0-2.84,0-4.23,0-2.79,0-4.23,0-2.94,0-4.54S111.85,1.86,111.84,0Z"/><path class="cls-1" d="M147.19,7c0,.44,0,.66,0,1.1a6.73,6.73,0,0,1-.94,3.84c-.65,1-3.05,2.11-3.05,2.11s2.87,1.48,3.63,2.64a7.67,7.67,0,0,1,1.12,4.21c0,1,0,1.5,0,2.5a6.49,6.49,0,0,1-1,3.88,5.51,5.51,0,0,1-3.18,2.07,14.68,14.68,0,0,1-5.27.26c-2-.2-3.46-.33-5-.46s-3-.26-5-.41c0-1.92,0-3.68,0-5.33s0-3.2,0-4.69,0-2.93,0-4.37,0-2.88,0-4.37,0-3,0-4.69,0-3.41,0-5.33h9.46a15.37,15.37,0,0,1,5.3.76,5.89,5.89,0,0,1,3.05,2.34A7.37,7.37,0,0,1,147.19,7ZM134.67,4.19c0,1.55,0,2.71,0,3.87s0,2.33,0,3.87l2.45.1a4.42,4.42,0,0,0,2.76-.57,2.75,2.75,0,0,0,1-2.44c0-.67,0-1,0-1.66A3.18,3.18,0,0,0,140.13,5a3.44,3.44,0,0,0-2.44-.77Zm.1,11.93c0,1.8,0,3.15,0,4.5s0,2.7,0,4.5l3.6.3c2.12.18,3.25-.44,3.23-2.67,0-1,0-1.57,0-2.61a3.76,3.76,0,0,0-1-2.92,4.91,4.91,0,0,0-3.11-1Z"/><path class="cls-1" d="M163.2,0c0,1.7,0,3.25,0,4.71s0,2.83,0,4.15,0,2.59,0,3.86,0,2.54,0,3.86,0,2.69,0,4.15,0,3,0,4.71a3.64,3.64,0,0,0,.89,2.61,4,4,0,0,0,2.37,1.07,3,3,0,0,0,2.36-.37,2.89,2.89,0,0,0,.86-2.44c0-1.75,0-3.36,0-4.87s0-2.92,0-4.29,0-2.68,0-4,0-2.63,0-4,0-2.78,0-4.29,0-3.12,0-4.87h5.93c0,1.79,0,3.43,0,5s0,3,0,4.37,0,2.73,0,4.07,0,2.68,0,4.08,0,2.83,0,4.37,0,3.18,0,5a9,9,0,0,1-1,4.62,5.2,5.2,0,0,1-3.1,2.41,11.2,11.2,0,0,1-5.13.08,14.62,14.62,0,0,1-5.15-1.83,8.72,8.72,0,0,1-3.16-3.23,9.38,9.38,0,0,1-1.1-4.5c0-1.95,0-3.7-.05-5.34s0-3.16,0-4.64,0-2.92,0-4.4,0-3,0-4.64,0-3.39,0-5.34h6.27Z"/><path class="cls-1" d="M185.38,16l4,.39,3.44.35,3.94.42v5.7l-3.94-.55-3.44-.47-3.94-.51c0-1.06,0-1.86,0-2.66S185.39,17,185.38,16Z"/></g></g></svg>