<svg xmlns="http://www.w3.org/2000/svg" viewBox="0 0 277.23 212.87"><defs><style>.cls-1{fill-rule:evenodd;}</style></defs><title>side_3</title><g id="Layer_2" data-name="Layer 2"><g id="Layer_1-2" data-name="Layer 1"><path class="cls-1" d="M148.62,125q-7.67,37.6-15.35,75.2c-.27,1.3-.53,2.61-.87,3.9-1.43,5.49-5.58,8.88-10.65,8.76s-9.21-3.6-10.36-9.17c-3.07-14.83-6-29.67-9-44.52q-9.13-45.26-18.26-90.53c-.23-1.11-.66-2.18-1.35-4.43L70.28,122.68c-1,4.72-1.93,9.46-3,14.16-1.29,5.53-4.89,8.81-10.56,8.87q-23,.26-46,0C4.2,145.62-.05,141,0,134.9s4.3-10.41,10.95-10.55c10.33-.22,20.66-.08,31-.09H48c2-9.32,4.08-18.51,6-27.71q9.17-43.21,18.3-86.44C73.76,3.5,77.79-.13,83.45,0S93,4.36,94.32,11.07q13.5,67.29,27.2,134.54c0,.11.18.2.81.87,1.63-7.68,3.21-14.93,4.69-22.19,2.47-12.06,4.86-24.14,7.31-36.21,1.23-6.08,4.53-9.57,9.48-10.13,5.33-.6,9.43,2,12,7.79,5.07,11.39,10.21,22.76,15,34.26,1.37,3.28,3.11,4.38,6.64,4.36,28.33-.15,56.66-.09,85-.1,9.68,0,14.88,3.84,14.74,10.94-.13,6.94-5.11,10.59-14.59,10.6-31.33,0-62.66-.08-94,.05-6.66,0-11.1-2.41-13.5-8.76-1.57-4.16-3.62-8.14-5.46-12.2Z"/></g></g></svg>