<svg xmlns="http://www.w3.org/2000/svg" viewBox="0 0 416 301.32"><defs><style>.cls-1{fill-rule:evenodd;}</style></defs><title>side_1</title><g id="Layer_2" data-name="Layer 2"><g id="Layer_1-2" data-name="Layer 1"><path class="cls-1" d="M416,192.52c-2.85,9.36-5,19.57-8.68,27.91-7.89,17.94-24.07,25.92-36.32,19.44-15.12-8-25.43-27.29-26-51.54-.59-25.94-.92-52.05.21-77.9,1-22.31,9.24-37.93,21.49-46.59s23.69-5.39,34.53,7C409.33,80,412.74,94.19,416,108.61Z"/><path class="cls-1" d="M0,108.61c2.85-9.36,5-19.53,8.69-27.9,7.8-17.86,24-25.85,36.32-19.39,15.1,7.91,25.37,27.25,26,51.54.6,24.55.75,49.21.06,73.73-.79,28.17-14,51.31-29.88,54.7-17.49,3.74-33-12-39-39.46C1.49,198.7.73,195.62,0,192.52Z"/><path class="cls-1" d="M286.22,186.57H132c-.08,2-.24,3.87-.24,5.79,0,23.49.08,47,0,70.48-.08,15.37-6.22,27.38-20.25,34.67-20.69,10.74-47.67-3.23-50.73-26.28a72.47,72.47,0,0,1-.64-9.46q0-111.47-.06-222.94C60.05,24,65.23,12,78.42,4.62,101-8.11,131.65,6.29,131.76,37.76c.09,23.49,0,47,0,70.48,0,2,0,3.92,0,6.24H286.22v-5.94c0-23.49-.06-47,0-70.48.06-17.18,9.43-31.25,23.65-35.87C334-5.63,356.18,9.61,357.8,35.07c.09,1.49.07,3,.07,4.5q0,111.22,0,222.44c0,12.71-3.58,23.7-13.95,31.6-11.33,8.64-24,10-36.76,4.18-14.31-6.53-20.79-18.73-20.93-34.16-.21-23.49-.06-47-.06-70.48Z"/></g></g></svg>