<svg xmlns="http://www.w3.org/2000/svg" viewBox="0 0 60.54 37.27"><defs><style>.cls-1{fill:#fff;}</style></defs><title>so_3</title><g id="Layer_2" data-name="Layer 2"><g id="Layer_1-2" data-name="Layer 1"><path class="cls-1" d="M18.64,37.27A18.64,18.64,0,1,1,31.71,5.36L27.88,8.67a13.6,13.6,0,1,0-9.24,23.56c5.72,0,10-3.71,11.37-9.75H18.32l0-5H35.63l0,1.92C35.66,29.73,28.52,37.27,18.64,37.27Z"/><polygon class="cls-1" points="53.39 22.29 53.39 29.44 48.82 29.44 48.82 22.29 41.67 22.29 41.67 17.72 48.82 17.72 48.82 10.57 53.39 10.57 53.39 17.72 60.54 17.72 60.54 22.29 53.39 22.29"/></g></g></svg>