<svg xmlns="http://www.w3.org/2000/svg" viewBox="0 0 384 448"><title>ico_fl</title><g id="Layer_2" data-name="Layer 2"><g id="Capa_1" data-name="Capa 1"><path d="M192,448c106,0,192-86,192-192C278,256,192,342,192,448ZM55.57,197.33a53.31,53.31,0,0,0,83.52,43.95l-.43,4.05a53.33,53.33,0,1,0,106.67,0l-.43-4.05a52.73,52.73,0,0,0,30.19,9.39,53.21,53.21,0,0,0,22.83-101.33,53.24,53.24,0,1,0-53-91.95l.43-4.05a53.33,53.33,0,1,0-106.67,0l.43,4.05A52.73,52.73,0,0,0,108.91,48,53.21,53.21,0,0,0,86.08,149.33a53.08,53.08,0,0,0-30.51,48ZM192,96a53.33,53.33,0,1,1-53.33,53.33A53.35,53.35,0,0,1,192,96ZM0,256C0,362,86,448,192,448,192,342,106,256,0,256Z"/></g></g></svg>