<svg xmlns="http://www.w3.org/2000/svg" viewBox="0 0 14.4 14.4"><title>ico_p</title><g id="Layer_2" data-name="Layer 2"><g id="Layer_1-2" data-name="Layer 1"><path d="M7.2,0a7.2,7.2,0,1,0,0,14.4,1.23,1.23,0,0,0,1.2-1.2,1,1,0,0,0-.32-.8,1.43,1.43,0,0,1-.32-.8A1.23,1.23,0,0,1,9,10.4H10.4a4,4,0,0,0,4-4C14.4,2.88,11.2,0,7.2,0ZM2.8,7.2a1.2,1.2,0,0,1,0-2.4,1.2,1.2,0,0,1,0,2.4ZM5.2,4A1.23,1.23,0,0,1,4,2.8,1.23,1.23,0,0,1,5.2,1.6,1.23,1.23,0,0,1,6.4,2.8,1.23,1.23,0,0,1,5.2,4Zm4,0A1.23,1.23,0,0,1,8,2.8a1.2,1.2,0,0,1,2.4,0A1.23,1.23,0,0,1,9.2,4Zm2.4,3.2A1.23,1.23,0,0,1,10.4,6a1.2,1.2,0,0,1,2.4,0,1.23,1.23,0,0,1-1.2,1.2Zm0,0"/></g></g></svg>