<svg xmlns="http://www.w3.org/2000/svg" viewBox="0 0 45.71 37.15"><defs><style>.cls-1{fill:#fff;}</style></defs><title>tw</title><g id="Layer_2" data-name="Layer 2"><g id="Layer_1-2" data-name="Layer 1"><path class="cls-1" d="M41,9.25c.59,13.19-9.24,27.9-26.66,27.9A26.54,26.54,0,0,1,0,32.93a18.84,18.84,0,0,0,13.88-3.88,9.38,9.38,0,0,1-8.76-6.51,9.38,9.38,0,0,0,4.23-.16,9.39,9.39,0,0,1-7.52-9.31,9.33,9.33,0,0,0,4.25,1.17A9.39,9.39,0,0,1,3.18,1.72a26.61,26.61,0,0,0,19.33,9.8A9.38,9.38,0,0,1,38.49,3a18.78,18.78,0,0,0,6-2.28,9.39,9.39,0,0,1-4.12,5.19A18.76,18.76,0,0,0,45.71,4.4,19,19,0,0,1,41,9.25Z"/></g></g></svg>