<svg xmlns="http://www.w3.org/2000/svg" viewBox="0 0 51.11 28.89"><defs><style>.cls-1{fill:#fff;}</style></defs><title>so_5</title><g id="Layer_2" data-name="Layer 2"><g id="Layer_1-2" data-name="Layer 1"><path class="cls-1" d="M45.58,19.94c4.1,3.77,4.95,5.59,5.08,5.83,0,0,1.7,3-1.89,3l-6.81.1c-1.46.29-3.41-1-3.41-1-2.55-1.74-4.95-6.25-6.81-5.67,0,0-1.92.61-1.86,4.67a2,2,0,0,1-.4,1.34,2.3,2.3,0,0,1-1.41.58H25C18.28,29.16,12.35,23,12.35,23S5.85,16.38.16,3.12c-.37-.87,0-1.29,0-1.29a1.93,1.93,0,0,1,1.52-.5L9,1.28a2.77,2.77,0,0,1,1.17.47,1.93,1.93,0,0,1,.64.84,52.66,52.66,0,0,0,2.74,5.64c2.66,5.43,4.47,6.35,5.51,5.8,0,0,1.36-.82,1.06-7.38a7.75,7.75,0,0,0-.77-3.45,3.54,3.54,0,0,0-2.26-1.13c-.4-.05.27-1,1.14-1.42C19.53,0,21.85,0,24.59,0a14.24,14.24,0,0,1,3.59.34c2.53.61,1.68,2.93,1.68,8.51,0,1.79-.34,4.3,1,5.11.56.37,1.94.05,5.35-5.7A48.14,48.14,0,0,0,39,2.35a1.58,1.58,0,0,1,.66-.82,1.78,1.78,0,0,1,1-.16l7.66-.05C50.67,1,51,2.09,51,2.09c.4,1.08-.85,3.61-4,7.75C41.88,16.64,41.32,16,45.58,19.94Z"/></g></g></svg>